{"title":"Trey Songz ft Nicki Minaj - Bottoms Up [KingPinVideos]","uid":5782055,"size":96206450,"categoryP":"video","categoryS":"music_videos","magnet":"?xt=urn:btih:212bf6b5a4370b766f9a323cd6d6be51762bf4b8&amp;dn=Trey+Songz+ft+Nicki+Minaj+-+Bottoms+Up+%5BKingPinVideos%5D&amp;tr=udp%3A%2F%2Ftracker.openbittorrent.com%3A80&amp;tr=udp%3A%2F%2Fopen.demonii.com%3A1337&amp;tr=udp%3A%2F%2Ftracker.coppersurfer.tk%3A6969&amp;tr=udp%3A%2F%2Fexodus.desync.com%3A6969","seeders":2,"leechers":0,"uploader":"KingPinMan","files":4,"time":1282456572,"description":"[img]http://a.imageshack.us/img704/3114/treyup.png[/img]\n\n[img]http://a.imageshack.us/img90/8194/treyup3.png[/img]\n\n[code]General\nComplete name                    : Trey Songz ft Nicki Minaj - Bottoms Up [KingPinVideos].mpg\nFormat                           : MPEG-PS\nFile size                        : 91.7 MiB\nDuration                         : 4mn 29s\nOverall bit rate                 : 2 856 Kbps\nWriting library                  : encoded by TMPGEnc 4.0 XPress Version. 4.7.4.299\n\nVideo\nID                               : 224 (0xE0)\nFormat                           : MPEG Video\nFormat version                   : Version 1\nFormat settings, BVOP            : Yes\nFormat settings, Matrix          : Default\nDuration                         : 4mn 29s\nBit rate mode                    : Constant\nBit rate                         : 2 615 Kbps\nNominal bit rate                 : 2 700 Kbps\nWidth                            : 384 pixels\nHeight                           : 208 pixels\nDisplay aspect ratio             : 16:9\nFrame rate                       : 29.970 fps\nResolution                       : 8 bits\nScan type                        : Progressive\nBits/(Pixel*Frame)               : 1.092\nStream size                      : 84.0 MiB (92%)\nWriting library                  : TMPGEnc XPress 4.7.4.299\n\nAudio\nID                               : 192 (0xC0)\nFormat                           : MPEG Audio\nFormat version                   : Version 1\nFormat profile                   : Layer 2\nDuration                         : 4mn 29s\nBit rate mode                    : Constant\nBit rate                         : 128 Kbps\nChannel(s)                       : 2 channels\nSampling rate                    : 48.0 KHz\nStream size                      : 4.11 MiB (4%)[/code]","torrent":{"xt":"urn:btih:212bf6b5a4370b766f9a323cd6d6be51762bf4b8","amp;dn":"Trey+Songz+ft+Nicki+Minaj+-+Bottoms+Up+%5BKingPinVideos%5D","amp;tr":["udp%3A%2F%2Ftracker.openbittorrent.com%3A80","udp%3A%2F%2Fopen.demonii.com%3A1337","udp%3A%2F%2Ftracker.coppersurfer.tk%3A6969","udp%3A%2F%2Fexodus.desync.com%3A6969"],"infoHash":"212bf6b5a4370b766f9a323cd6d6be51762bf4b8","infoHashBuffer":{"type":"Buffer","data":[33,43,246,181,164,55,11,118,111,154,50,60,214,214,190,81,118,43,244,184]},"announce":[],"urlList":[]}}